<svg width="24" height="24" viewBox="0 0 24 24" fill="none" xmlns="http://www.w3.org/2000/svg">
<path d="M6.44444 17.5556H8.66667V9.77778H6.44444V17.5556ZM10.8889 17.5556H13.1111V6.44444H10.8889V17.5556ZM15.3333 17.5556H17.5556V13.1111H15.3333V17.5556ZM4.22222 22C3.61111 22 3.08778 21.7826 2.65222 21.3478C2.21741 20.9122 2 20.3889 2 19.7778V4.22222C2 3.61111 2.21741 3.08778 2.65222 2.65222C3.08778 2.21741 3.61111 2 4.22222 2H19.7778C20.3889 2 20.9122 2.21741 21.3478 2.65222C21.7826 3.08778 22 3.61111 22 4.22222V19.7778C22 20.3889 21.7826 20.9122 21.3478 21.3478C20.9122 21.7826 20.3889 22 19.7778 22H4.22222Z" fill="#6367E9"/>
</svg>
