<svg width="22" height="22" viewBox="0 0 22 22" fill="none" xmlns="http://www.w3.org/2000/svg">
<path d="M21 11C21 12.9778 20.4135 14.9112 19.3147 16.5557C18.2159 18.2002 16.6541 19.4819 14.8268 20.2388C12.9996 20.9957 10.9889 21.1937 9.0491 20.8078C7.10929 20.422 5.32746 19.4696 3.92894 18.0711C2.53041 16.6725 1.578 14.8907 1.19215 12.9509C0.8063 11.0111 1.00433 9.00043 1.76121 7.17316C2.51809 5.3459 3.79981 3.78412 5.4443 2.6853C7.08879 1.58649 9.02219 1 11 1C13.6522 1 16.1957 2.05357 18.0711 3.92893C19.9464 5.80429 21 8.34783 21 11Z" stroke="#2A2A2A" stroke-linecap="round"/>
<path d="M13.504 9.52516H13.2014V8.42919C13.1721 7.82068 12.9032 7.24848 12.4534 6.83763C12.0035 6.42678 11.4093 6.21069 10.8007 6.23657C10.1916 6.20996 9.5967 6.42572 9.14628 6.83665C8.69586 7.24757 8.42656 7.82019 8.39733 8.42919V9.52516H8.09733C7.86866 9.51532 7.64539 9.59643 7.47636 9.75074C7.30733 9.90506 7.20628 10.12 7.19531 10.3487V14.1869C7.20645 14.4154 7.30757 14.6302 7.47659 14.7844C7.6456 14.9386 7.86877 15.0196 8.09733 15.0097H13.504C13.7326 15.0196 13.9558 14.9386 14.1248 14.7844C14.2938 14.6302 14.3949 14.4154 14.406 14.1869V10.3487C14.3951 10.12 14.294 9.90506 14.125 9.75074C13.956 9.59643 13.7327 9.51532 13.504 9.52516ZM9.198 8.42919C9.21749 8.02311 9.39708 7.64129 9.69746 7.36733C9.99784 7.09337 10.3945 6.94958 10.8007 6.96745C11.2067 6.94976 11.6032 7.09363 11.9035 7.36758C12.2037 7.64152 12.3832 8.02323 12.4027 8.42919V9.52516H9.198V8.42919Z" fill="#2A2A2A"/>
</svg>
