<svg width="26" height="26" viewBox="0 0 26 26" fill="none" xmlns="http://www.w3.org/2000/svg">
<path d="M13.0212 3.14844C9.43532 3.14844 6.52115 6.0626 6.52115 9.64844V12.7793C6.52115 13.4401 6.23948 14.4476 5.90365 15.0109L4.65782 17.0801C3.88865 18.3584 4.41949 19.7776 5.82782 20.2543C10.497 21.8143 15.5345 21.8143 20.2037 20.2543C21.5145 19.8209 22.0887 18.2718 21.3737 17.0801L20.1278 15.0109C19.8028 14.4476 19.5212 13.4401 19.5212 12.7793V9.64844C19.5212 6.07344 16.5962 3.14844 13.0212 3.14844Z" stroke="#0A0A0A" stroke-width="1.5" stroke-miterlimit="10" stroke-linecap="round"/>
<path d="M15.024 3.46461C14.6881 3.36711 14.3415 3.29128 13.984 3.24794C12.944 3.11794 11.9473 3.19378 11.0156 3.46461C11.3298 2.66294 12.1098 2.09961 13.0198 2.09961C13.9298 2.09961 14.7098 2.66294 15.024 3.46461Z" stroke="#0A0A0A" stroke-width="1.5" stroke-miterlimit="10" stroke-linecap="round" stroke-linejoin="round"/>
<path d="M16.2695 20.6504C16.2695 22.4379 14.807 23.9004 13.0195 23.9004C12.1312 23.9004 11.3079 23.5321 10.7229 22.9471C10.1379 22.3621 9.76953 21.5387 9.76953 20.6504" stroke="#0A0A0A" stroke-width="1.5" stroke-miterlimit="10"/>
</svg>
