<svg width="24" height="24" viewBox="0 0 24 24" fill="none" xmlns="http://www.w3.org/2000/svg">
<path fill-rule="evenodd" clip-rule="evenodd" d="M11.8722 2.00005C14.7262 2.00005 17.0542 4.25667 17.1688 7.08262L17.1732 7.3011V8.87696C18.9497 9.49361 20.225 11.1821 20.225 13.1689V17.4579C20.225 19.9668 18.1915 21.9999 15.683 21.9999H8.042C5.53347 21.9999 3.5 19.9668 3.5 17.4579V13.1689C3.5 11.1819 4.77545 9.49335 6.5522 8.87682L6.55221 7.27781C6.56502 4.34982 8.94806 1.9873 11.8722 2.00005ZM15.6732 7.3011V8.6269H8.0522V7.2811L8.058 7.08578C8.16855 5.08056 9.83555 3.49118 11.8689 3.50004C13.971 3.50005 15.6732 5.2023 15.6732 7.3011ZM15.683 10.1269H8.042C6.36184 10.1269 5 11.4885 5 13.1689V17.4579C5 19.1383 6.36184 20.4999 8.042 20.4999H15.683C17.3632 20.4999 18.725 19.1383 18.725 17.4579V13.1689C18.725 11.4885 17.3632 10.1269 15.683 10.1269ZM12.6059 14.1012C12.5562 13.7351 12.2424 13.453 11.8627 13.453C11.4485 13.453 11.1127 13.7888 11.1127 14.203V16.424L11.1195 16.5258C11.1692 16.8918 11.483 17.174 11.8627 17.174C12.2769 17.174 12.6127 16.8382 12.6127 16.424V14.203L12.6059 14.1012Z" fill="#333335"/>
</svg>
