<svg width="24" height="24" viewBox="0 0 24 24" fill="none" xmlns="http://www.w3.org/2000/svg">
<path d="M18.252 3.66668H16V3.26918C16 2.56918 15.4536 2 14.7824 2H9.21761C8.54639 2 8.00002 2.56918 8.00002 3.26918V3.66668H5.74799C4.78398 3.66668 4 4.48336 4 5.4875V20.18C4 21.1833 4.78398 22 5.74799 22H18.252C19.216 22 20 21.1833 20 20.18V5.4875C20 4.48332 19.216 3.66668 18.252 3.66668ZM9.6 3.66668H14.4V5.33336H9.6V3.66668ZM8.06718 11.6658C8.83278 9.84414 10.5576 8.66664 12.4624 8.66664C13.4896 8.66664 14.4416 9.02832 15.2256 9.65496C15.2888 9.26078 15.6032 8.95414 16 8.95414C16.4424 8.95414 16.8 9.32746 16.8 9.78746V11.9883V11.9908V12C16.8 12.0317 16.7856 12.0592 16.7824 12.09C16.7744 12.1658 16.7672 12.2425 16.7392 12.3133C16.72 12.3616 16.6872 12.4 16.66 12.4441C16.6312 12.49 16.6088 12.54 16.5712 12.5808C16.5224 12.6333 16.46 12.6683 16.3992 12.7058C16.3712 12.7233 16.3512 12.7491 16.3208 12.7633C16.3191 12.7641 16.3184 12.7641 16.3167 12.7641C16.2375 12.8 16.1504 12.8133 16.0607 12.8208C16.0407 12.8225 16.0207 12.8341 16.0007 12.8341C15.9999 12.8341 15.9991 12.8333 15.9983 12.8333H13.8759C13.4336 12.8333 13.076 12.46 13.076 12C13.076 11.54 13.4336 11.1667 13.8759 11.1667H14.4872C13.9407 10.6325 13.2384 10.3334 12.4623 10.3334C11.1935 10.3334 10.0439 11.1192 9.53272 12.3342C9.35512 12.755 8.88472 12.9475 8.47912 12.7634C8.07438 12.5792 7.88958 12.0875 8.06718 11.6658ZM16.7328 15.6675C15.9672 17.49 14.2416 18.6667 12.3376 18.6667C11.3104 18.6667 10.3584 18.305 9.57442 17.6784C9.51123 18.0734 9.19683 18.3792 8.80001 18.3792C8.35762 18.3792 8.00002 18.0067 8.00002 17.5459V15.345V15.3434V15.3334C8.00002 15.3017 8.01363 15.275 8.01761 15.2442C8.02559 15.1675 8.03279 15.0909 8.06081 15.02C8.07922 14.9717 8.11282 14.9342 8.13922 14.8908C8.16881 14.8433 8.19041 14.7933 8.22881 14.7533C8.27759 14.7008 8.33921 14.665 8.39999 14.6275C8.42801 14.6108 8.44799 14.5842 8.47919 14.57C8.48081 14.5692 8.48238 14.57 8.48321 14.5692C8.53919 14.5442 8.60321 14.54 8.66482 14.5284C8.70802 14.5209 8.75122 14.5017 8.79521 14.5009C8.79682 14.5009 8.79839 14.5 8.80001 14.5H10.924C11.3664 14.5 11.724 14.8734 11.724 15.3334C11.724 15.7934 11.3664 16.1667 10.924 16.1667H10.3128C10.8592 16.7008 11.5616 17 12.3376 17C13.6064 17 14.756 16.215 15.2672 14.9992C15.4432 14.5775 15.9152 14.3842 16.3208 14.57C16.7256 14.755 16.9104 15.2458 16.7328 15.6675Z" fill="#A6A5A5"/>
</svg>
