<svg width="24" height="25" viewBox="0 0 24 25" fill="none" xmlns="http://www.w3.org/2000/svg">
<g clip-path="url(#clip0_2020_8914)">
<mask id="mask0_2020_8914" style="mask-type:luminance" maskUnits="userSpaceOnUse" x="5" y="2" width="14" height="21">
<path d="M19 2.82031H5V22.8203H19V2.82031Z" fill="white"/>
</mask>
<g mask="url(#mask0_2020_8914)">
<path d="M9.24381 5.5433C9.05532 6.26557 8.95193 7.00799 8.93579 7.75499L7.55363 8.34602C7.51813 7.24485 7.63984 6.14426 7.915 5.07849L9.24381 5.5433ZM14.6561 18.2004C15.3411 18.6549 16.0664 19.0434 16.8226 19.3609L16.4169 20.5559C15.3072 20.0885 14.2534 19.4946 13.276 18.7854L14.6554 18.2024M10.6324 4.23819L7.55148 3.16051C7.33423 3.07233 7.0915 3.07461 6.87589 3.16686C6.66029 3.2591 6.48919 3.43388 6.39968 3.65331C3.84857 11.1675 8.47859 19.6034 16.7433 22.4943C16.9606 22.5826 17.2035 22.5805 17.4192 22.4882C17.6349 22.396 17.8061 22.2212 17.8956 22.0017L18.8439 19.2085C18.9066 18.9797 18.8779 18.735 18.7641 18.5275C18.6502 18.32 18.4604 18.1664 18.2357 18.1C17.1717 17.7294 16.1657 17.2057 15.2483 16.5448C15.1701 16.4852 15.0824 16.4395 14.9891 16.4096C14.7605 16.3287 14.5109 16.3335 14.2854 16.423L11.751 17.5067C9.69609 15.557 8.29449 13.0029 7.74301 10.2031L10.2775 9.11943C10.4244 9.06175 10.5506 8.96018 10.6394 8.82814C10.7282 8.6961 10.7755 8.53981 10.7749 8.37993C10.7529 7.34877 10.9114 6.32184 11.2432 5.34698C11.3059 5.11776 11.2769 4.87269 11.1625 4.66506C11.0481 4.45743 10.8576 4.30402 10.6324 4.23819Z" fill="#676767"/>
</g>
</g>
<defs>
<clipPath id="clip0_2020_8914">
<rect width="14" height="20" fill="white" transform="translate(5 2.82031)"/>
</clipPath>
</defs>
</svg>
