<svg width="22" height="22" viewBox="0 0 22 22" fill="none" xmlns="http://www.w3.org/2000/svg">
<path d="M21 11C21 12.9778 20.4135 14.9112 19.3147 16.5557C18.2159 18.2002 16.6541 19.4819 14.8268 20.2388C12.9996 20.9957 10.9889 21.1937 9.0491 20.8078C7.10929 20.422 5.32746 19.4696 3.92894 18.0711C2.53041 16.6725 1.578 14.8907 1.19215 12.9509C0.8063 11.0111 1.00433 9.00043 1.76121 7.17316C2.51809 5.3459 3.79981 3.78412 5.4443 2.6853C7.08879 1.58649 9.02219 1 11 1C13.6522 1 16.1957 2.05357 18.0711 3.92893C19.9464 5.80429 21 8.34783 21 11Z" stroke="#2A2A2A" stroke-linecap="round"/>
<path d="M9.80469 9.21875L12.655 11.006L9.80469 12.7932V9.21875Z" stroke="#2A2A2A" stroke-linecap="round"/>
</svg>
